<svg width="67" height="62" viewBox="0 0 67 62" fill="none" xmlns="http://www.w3.org/2000/svg">
	<path fill-rule="evenodd" clip-rule="evenodd" d="M52.0607 6.41379H14.9393V0H8.75244V6.41379H0.245453V62H66.7546V6.41379H58.2476V0H52.0607V6.41379ZM26.4734 20.7099L25.2578 17.9119L19.5141 20.0308L21.8794 25.4752L23.0291 28.1215L25.901 27.0622L32.7889 24.5212L33.3401 29.9419L39.4998 29.4099L38.7781 22.3117L46.4183 19.4931L44.1189 14.2003L26.4734 20.7099ZM28.8599 42.046H10.2992V37.7701H28.8599V42.046ZM10.2992 53.4483H28.8599V49.1724H10.2992V53.4483ZM56.7009 42.046H38.1402V37.7701H56.7009V42.046ZM38.1402 53.4483H56.7009V49.1724H38.1402V53.4483Z" fill="black" />
</svg>
