<svg width="65" height="62" viewBox="0 0 65 62" fill="none" xmlns="http://www.w3.org/2000/svg">
	<path d="M51.7463 2.63849e-05L44.0483 3.02337L39.3737 7.83493V13.8762C39.1722 13.8673 38.0517 13.8336 36.6242 13.801V12.5096C36.6242 11.6847 36.0743 11.1348 35.2495 11.1348C34.4246 11.1348 33.8747 11.6847 33.8747 12.5096V13.7742C32.5232 13.7712 31.1527 13.7942 29.7505 13.8494V12.5096C29.7505 11.6847 29.2006 11.1348 28.3758 11.1348C27.5509 11.1348 27.0011 11.6847 27.0011 12.5096V13.981C24.9733 14.0912 23.1453 14.2322 21.5021 14.3971V12.5095C21.5021 11.6847 20.9522 11.1348 20.1274 11.1348C19.3025 11.1348 18.7526 11.6847 18.7526 12.5095V14.6952C16.8378 14.9314 15.3179 15.1579 14.556 15.2751H14.5506L14.5425 15.2778C14.052 15.3582 13.716 15.4338 13.2537 15.5141V13.06C13.2537 12.2352 12.7038 11.6853 11.879 11.6853C11.0541 11.6853 10.5042 12.2352 10.5042 13.06V16.0216C7.29856 16.6454 5.02946 17.1846 3.63057 17.5655V14.7086C3.63057 13.8838 3.08068 13.3339 2.25584 13.3339C1.431 13.3339 0.881104 13.8838 0.881104 14.7086V31.0685C1.84342 30.3811 2.66826 29.6932 3.63057 29.1433V20.4062C4.77155 20.0783 7.08449 19.4889 10.5042 18.8113V24.6083C10.5042 24.8832 10.6412 25.0207 10.6412 25.2957C11.466 24.8833 12.2914 24.6067 13.2537 24.3317V18.3092C13.8627 18.2014 14.3242 18.0986 14.9882 17.9897C15.7077 17.879 17.079 17.6779 18.7526 17.4662V22.4066V22.6832H18.8896C19.7144 22.4082 20.5398 22.1338 21.5021 21.8589V17.1601C23.1295 16.9932 24.9645 16.8487 27.0011 16.7358V20.6211C27.8259 20.4836 28.7882 20.3451 29.7505 20.2076V16.5989C31.1364 16.5426 32.5126 16.5206 33.8747 16.5237V19.6571C34.2871 19.6571 34.7006 19.5202 34.9756 19.5202H36.6242V16.5505C38.0227 16.5827 39.241 16.6201 39.3737 16.6257V19.3832C41.1608 19.3832 42.8105 19.3827 44.8726 19.5201V12.5095C44.8726 11.6847 45.4225 11.1348 46.2473 11.1348H57.2452C58.07 11.1348 58.6199 11.6847 58.6199 12.5095V20.4841C60.4071 20.6216 62.3317 20.8965 64.1189 21.1714V7.83491L59.4442 3.16028L51.7463 2.63849e-05ZM51.7463 5.6359C52.5711 5.6359 53.121 6.18579 53.121 7.01063C53.121 7.83547 52.5711 8.38537 51.7463 8.38537C50.9214 8.38537 50.3715 7.83547 50.3715 7.01063C50.3715 6.18579 50.9214 5.6359 51.7463 5.6359ZM38.5494 22.4066C32.7755 25.156 27.1391 28.3201 22.0525 32.1693C14.629 37.5308 8.44268 43.7155 1.43153 52.5138L0.881104 53.0642V62H13.1168L13.2537 61.5865C14.0786 59.3869 19.9888 47.8407 27.2749 39.1799C33.5987 31.6189 39.7866 26.1205 44.7357 22.5462C42.3986 22.4087 40.474 22.4066 38.5494 22.4066ZM49.4103 22.8201C44.5987 25.5695 37.0377 31.7553 29.4766 40.8285C22.603 49.2144 17.2399 59.388 16.1401 62H31.1253L31.2622 61.5865C33.8742 53.7505 37.3116 46.3275 41.4358 39.4538C45.6974 32.5801 50.3721 26.8057 53.6714 23.0939C52.2967 22.9564 50.9225 22.9575 49.4103 22.8201ZM31.3991 22.957C26.3126 23.6444 22.3259 24.7452 19.7139 25.4326C15.4522 26.6699 12.1529 27.6311 8.02865 29.8307C5.82907 31.0679 3.63003 32.4421 1.70541 34.0918L0.881104 34.7792V48.8031C7.47983 40.8296 13.3901 35.1916 20.4013 29.9676C23.8381 27.3556 27.5499 25.1566 31.3991 22.957ZM57.1083 23.2336C53.9464 26.8079 48.4458 32.9926 43.7717 40.8286C39.785 47.4273 36.4862 54.5764 34.0117 62H47.4851L47.6221 61.7261C48.9968 55.5398 50.7829 49.4894 52.7075 43.578C54.9071 36.8418 57.6582 30.1056 60.5451 23.6444C59.4453 23.5069 58.3455 23.3711 57.1083 23.2336ZM63.2946 24.0579C60.2702 30.6566 57.5202 37.5287 55.1831 44.4023C53.2585 50.1762 51.6093 56.0886 50.2346 62H64.1189V24.0579L63.2946 24.0579Z" fill="black" />
</svg>
