<svg width="93" height="63" viewBox="0 0 93 63" fill="none" xmlns="http://www.w3.org/2000/svg">
	<path d="M75.1104 0C72.0393 2.93981 68.3459 5.2517 64.253 6.72446C59.9832 7.47797 48.1668 1.99793 42.3443 7.59213C41.3739 8.56256 40.1751 9.53298 38.9193 10.5034C36.1793 9.30465 31.9551 7.47797 28.8725 5.70837C25.79 3.93878 18.0266 0 18.0266 0L0.901527 19.9793C0.901527 19.9793 5.12572 25.6877 7.75157 29.4552C9.46409 31.9669 11.5762 35.7915 12.9462 38.3603L11.0053 40.6436C10.6743 41.3001 10.4745 42.0707 10.4745 42.887C10.4745 44.2285 10.9996 45.4501 11.8616 46.352C12.6494 46.9399 13.6369 47.2939 14.7158 47.2939C15.7947 47.2939 16.7822 46.9399 17.5814 46.3406C17.0448 46.9628 16.7308 47.762 16.7308 48.6353C16.7308 49.737 17.2332 50.7189 18.0209 51.3696C18.8429 51.8549 19.8305 52.1403 20.8808 52.1403C21.9312 52.1403 22.9187 51.8549 23.7636 51.3582C23.1242 52.1517 22.7532 53.1449 22.7532 54.2295C22.7532 55.3141 23.1242 56.3074 23.7464 57.0951C24.3116 57.2949 24.968 57.4148 25.653 57.4148C26.8347 57.4148 27.9307 57.0552 28.8383 56.4444C28.5928 56.9867 28.4673 57.6032 28.4673 58.2539C28.4673 59.5897 29.0153 60.7942 29.9058 61.6504C30.6479 61.9872 31.5212 62.1813 32.4346 62.1813C33.7247 62.1813 34.9291 61.7931 35.9224 61.1252L38.8679 58.4594C41.5623 61.1424 45.2784 62.8035 49.3827 62.8035C49.4969 62.8035 49.6168 62.8035 49.7309 62.7978C52.5509 62.5581 54.9141 60.7656 55.9759 58.2825C56.8093 58.6021 57.7569 58.8191 58.7616 58.8191C60.1088 58.8191 61.3589 58.4309 62.4149 57.763C65.7543 55.5539 64.9552 53.8414 64.9552 53.8414C65.6687 54.1553 66.4964 54.338 67.3698 54.338C69.2022 54.338 70.8519 53.5274 71.9708 52.2487C72.9754 51.2155 73.5862 49.8113 73.5862 48.27C73.5862 47.1854 73.2837 46.175 72.7585 45.3131C72.8042 45.3416 72.8441 45.3416 72.8784 45.3416C75.2816 45.3416 77.3709 44.0173 78.4612 42.065C78.8493 41.0889 79.0606 39.9929 79.0606 38.8512C79.0606 36.8989 78.4326 35.0894 77.3709 33.6166L77.388 33.6451C82.0689 32.7318 81.8976 30.3914 84.181 26.9664C86.373 24.1464 89.0445 21.8174 92.0985 20.0706L75.1104 0ZM74.8249 40.3011C72.3133 42.8128 70.3724 41.7282 66.0911 38.4744C61.8099 35.2207 53.3044 29.1127 53.3044 29.1127C53.6526 30.8538 54.4575 32.3665 55.5934 33.5709C57.4144 35.6202 62.8374 40.3011 65.4061 42.6986C67.0045 44.1828 71.1145 47.1512 68.717 49.4345C66.3195 51.7178 64.4357 49.4345 60.4969 46.2378C56.5581 43.0411 47.7673 35.1636 47.7673 35.1636C47.7616 35.2663 47.7558 35.3805 47.7558 35.5004C47.7558 36.9731 48.3495 38.3032 49.3085 39.2736C50.2789 40.4153 55.7019 45.667 57.9852 48.0645C60.2686 50.462 62.2665 51.8891 60.3257 53.7729C58.3848 55.6566 54.4461 52.6883 52.2769 50.462C48.9089 47.2082 42.2301 41.1574 42.2301 41.1574C42.2244 41.2487 42.2244 41.3514 42.2244 41.4599C42.2244 43.0811 42.7838 44.5653 43.7257 45.7412C45.3697 47.8989 48.5664 50.6961 50.5073 52.8652C52.4481 55.0344 53.5898 56.8611 50.5073 58.5736C47.4248 60.2861 42.8581 56.0619 40.8601 54.0069V53.9955C40.8601 53.4075 40.6432 52.8709 40.2893 52.4599C39.3817 51.6208 38.1544 51.1013 36.8129 51.1013C36.2192 51.1013 35.6484 51.2041 35.1175 51.3868C35.8482 50.736 36.282 49.8227 36.282 48.8066C36.282 47.7905 35.8482 46.8772 35.1518 46.2378C34.4325 45.6955 33.5306 45.3701 32.5544 45.3701C31.5783 45.3701 30.6707 45.6955 29.9457 46.2435C30.6136 45.5985 31.0246 44.7137 31.0246 43.7261C31.0246 42.5102 30.4024 41.4428 29.4605 40.8206C28.5871 40.2669 27.5425 39.9472 26.4237 39.9472C25.0308 39.9472 23.7521 40.4495 22.7589 41.2772C23.3012 40.6265 23.6208 39.7931 23.6208 38.8797C23.6208 37.7666 23.1356 36.7676 22.3707 36.0769C21.3546 35.135 19.9903 34.5585 18.4947 34.5585C17.4387 34.5585 16.4511 34.8439 15.6006 35.3462L11.8045 28.9357C9.17867 24.7686 6.09615 20.4303 6.09615 20.4303L19.1112 4.61807C19.1112 4.61807 23.735 7.47226 27.5596 9.64144C29.4434 10.726 32.6972 12.1531 35.1518 13.2948C31.2701 16.2061 28.0163 19.0032 28.9867 20.944C30.6821 22.1656 32.7999 22.902 35.089 22.902C37.2353 22.902 39.2332 22.2569 40.9001 21.1495C43.0293 19.7167 45.6951 18.849 48.5664 18.849C50.5472 18.849 52.431 19.26 54.1378 20.0078C57.3002 22.1428 63.1228 27.3945 68.4316 30.7053C75.1104 35.5574 76.4233 38.6971 74.8249 40.2954V40.3011Z" fill="#444444" />
</svg>
